{
  "accessors": [
    {
      "bufferView": 2,
      "componentType": 5126,
      "count": 6077,
      "max": [
        155.5160369873047,
        74.5145492553711,
        156.24998474121094
      ],
      "min": [
        -155.4527587890625,
        -2.551182985305786,
        -152.99998474121094
      ],
      "type": "VEC3"
    },
    {
      "bufferView": 2,
      "byteOffset": 72924,
      "componentType": 5126,
      "count": 6077,
      "max": [
        0.999965250492096,
        0.9999794960021973,
        0.9999966025352478
      ],
      "min": [
        -0.999982476234436,
        -0.9999889135360718,
        -0.9999921321868896
      ],
      "type": "VEC3"
    },
    {
      "bufferView": 3,
      "componentType": 5126,
      "count": 6077,
      "max": [
        0.998693585395813,
        0.9999549388885498,
        0.9982513785362244,
        1.0
      ],
      "min": [
        -0.9998546242713928,
        -0.9999927282333374,
        -0.9997698664665222,
        -1.0
      ],
      "type": "VEC4"
    },
    {
      "bufferView": 1,
      "componentType": 5126,
      "count": 6077,
      "max": [
        0.9900000095367432,
        0.9900000095367432
      ],
      "min": [
        0.009999999776482582,
        0.07305499911308289
      ],
      "type": "VEC2"
    },
    {
      "bufferView": 1,
      "byteOffset": 48616,
      "componentType": 5126,
      "count": 6077,
      "max": [
        0.9900000095367432,
        0.9900000095367432
      ],
      "min": [
        0.009999999776482582,
        0.07305499911308289
      ],
      "type": "VEC2"
    },
    {
      "bufferView": 1,
      "byteOffset": 97232,
      "componentType": 5126,
      "count": 6077,
      "max": [
        0.9900000095367432,
        0.9900000095367432
      ],
      "min": [
        0.009999999776482582,
        0.07305499911308289
      ],
      "type": "VEC2"
    },
    {
      "bufferView": 0,
      "componentType": 5125,
      "count": 30270,
      "type": "SCALAR"
    }
  ],
  "asset": {
    "extras": {
      "author": "Butanero (https://sketchfab.com/butanero)",
      "license": "CC-BY-4.0 (http://creativecommons.org/licenses/by/4.0/)",
      "source": "https://sketchfab.com/3d-models/free-crown-13749cea9aa24b45b3ce4c36d00fb923",
      "title": "Free Crown"
    },
    "generator": "Sketchfab-16.75.0",
    "version": "2.0"
  },
  "bufferViews": [
    {
      "buffer": 0,
      "byteLength": 121080,
      "name": "floatBufferViews",
      "target": 34963
    },
    {
      "buffer": 0,
      "byteLength": 145848,
      "byteOffset": 121080,
      "byteStride": 8,
      "name": "floatBufferViews",
      "target": 34962
    },
    {
      "buffer": 0,
      "byteLength": 145848,
      "byteOffset": 266928,
      "byteStride": 12,
      "name": "floatBufferViews",
      "target": 34962
    },
    {
      "buffer": 0,
      "byteLength": 97232,
      "byteOffset": 412776,
      "byteStride": 16,
      "name": "floatBufferViews",
      "target": 34962
    }
  ],
  "buffers": [
    {
      "byteLength": 510008,
      "uri": "scene.bin"
    }
  ],
  "extensionsUsed": [
    "KHR_materials_specular"
  ],
  "images": [
    {
      "uri": "textures/Default.023_baseColor.jpeg"
    },
    {
      "uri": "textures/Default.023_metallicRoughness.png"
    },
    {
      "uri": "textures/Default.023_normal.png"
    }
  ],
  "materials": [
    {
      "doubleSided": true,
      "extensions": {
        "KHR_materials_specular": {
          "specularColorFactor": [
            1.0,
            1.0,
            1.0
          ],
          "specularFactor": 1.0
        }
      },
      "name": "Default.023",
      "normalTexture": {
        "index": 2
      },
      "pbrMetallicRoughness": {
        "baseColorFactor": [
          0.5531445429167022,
          0.5531445429167022,
          0.5531445429167022,
          1.0
        ],
        "baseColorTexture": {
          "index": 0
        },
        "metallicRoughnessTexture": {
          "index": 1
        }
      }
    }
  ],
  "meshes": [
    {
      "name": "MERGE_copy000_Default.023_0",
      "primitives": [
        {
          "attributes": {
            "NORMAL": 1,
            "POSITION": 0,
            "TANGENT": 2,
            "TEXCOORD_0": 3,
            "TEXCOORD_1": 4,
            "TEXCOORD_2": 5
          },
          "indices": 6,
          "material": 0,
          "mode": 4
        }
      ]
    }
  ],
  "nodes": [
    {
      "children": [
        1
      ],
      "matrix": [
        0.5871331095695496,
        0.0,
        0.0,
        0.0,
        0.0,
        1.3036973935277575e-16,
        -0.5871331095695496,
        0.0,
        0.0,
        0.5871331095695496,
        1.3036973935277575e-16,
        0.0,
        0.0,
        0.0,
        0.0,
        1.0
      ],
      "name": "Sketchfab_model"
    },
    {
      "children": [
        2
      ],
      "matrix": [
        0.009999999776482582,
        0.0,
        0.0,
        0.0,
        0.0,
        0.0,
        0.009999999776482582,
        0.0,
        0.0,
        -0.009999999776482582,
        0.0,
        0.0,
        0.0,
        0.0,
        0.0,
        1.0
      ],
      "name": "crown.fbx"
    },
    {
      "children": [
        3
      ],
      "name": "RootNode"
    },
    {
      "children": [
        4
      ],
      "matrix": [
        -0.17000322235999815,
        0.004784972699969404,
        0.024049296342840646,
        0.0,
        0.0022438018679747933,
        0.1972933581465529,
        -0.023393191081489746,
        0.0,
        -0.028275680303694407,
        -0.022839417571172325,
        -0.19533506134728937,
        0.0,
        -1120.22900390625,
        319.7755432128906,
        -963.7792358398438,
        1.0
      ],
      "name": "MERGE_copy000"
    },
    {
      "mesh": 0,
      "name": "MERGE_copy000_Default.023_0"
    }
  ],
  "samplers": [
    {
      "magFilter": 9729,
      "minFilter": 9987,
      "wrapS": 10497,
      "wrapT": 10497
    }
  ],
  "scene": 0,
  "scenes": [
    {
      "name": "Sketchfab_Scene",
      "nodes": [
        0
      ]
    }
  ],
  "textures": [
    {
      "sampler": 0,
      "source": 0
    },
    {
      "sampler": 0,
      "source": 1
    },
    {
      "sampler": 0,
      "source": 2
    }
  ]
}
