{
  "accessors": [
    {
      "bufferView": 3,
      "componentType": 5126,
      "count": 1859,
      "max": [
        2.7333412170410156,
        4.589911460876465,
        0.6947287917137146
      ],
      "min": [
        1.4424822330474854,
        2.929992914199829,
        -0.6781988739967346
      ],
      "type": "VEC3"
    },
    {
      "bufferView": 3,
      "byteOffset": 22308,
      "componentType": 5126,
      "count": 1859,
      "max": [
        0.9971351623535156,
        0.9997859597206116,
        0.9913395643234253
      ],
      "min": [
        -0.9996873736381531,
        -0.9999157786369324,
        -0.9919232726097107
      ],
      "type": "VEC3"
    },
    {
      "bufferView": 2,
      "componentType": 5126,
      "count": 1859,
      "max": [
        0.9980469942092896,
        0.9965819716453552
      ],
      "min": [
        0.008293000049889088,
        0.0016989707946777344
      ],
      "type": "VEC2"
    },
    {
      "bufferView": 1,
      "componentType": 5125,
      "count": 8643,
      "type": "SCALAR"
    },
    {
      "bufferView": 3,
      "byteOffset": 44616,
      "componentType": 5126,
      "count": 3444,
      "max": [
        1.850476622581482,
        4.217270851135254,
        0.8484916687011719
      ],
      "min": [
        -3.7375471591949463,
        -0.04255140572786331,
        -0.8566470146179199
      ],
      "type": "VEC3"
    },
    {
      "bufferView": 3,
      "byteOffset": 85944,
      "componentType": 5126,
      "count": 3444,
      "max": [
        0.9988982677459717,
        0.999952495098114,
        0.9999522566795349
      ],
      "min": [
        -0.9976673126220703,
        -0.9998998045921326,
        -0.9999436140060425
      ],
      "type": "VEC3"
    },
    {
      "bufferView": 2,
      "byteOffset": 14872,
      "componentType": 5126,
      "count": 3444,
      "max": [
        0.9951170086860657,
        0.9902340173721313
      ],
      "min": [
        0.008094999939203262,
        0.007197976112365723
      ],
      "type": "VEC2"
    },
    {
      "bufferView": 1,
      "byteOffset": 34572,
      "componentType": 5125,
      "count": 17589,
      "type": "SCALAR"
    },
    {
      "bufferView": 3,
      "byteOffset": 127272,
      "componentType": 5126,
      "count": 4165,
      "max": [
        2.066601037979126,
        4.500368118286133,
        1.0470082759857178
      ],
      "min": [
        -3.9647839069366455,
        0.11541367322206497,
        -1.041686773300171
      ],
      "type": "VEC3"
    },
    {
      "bufferView": 3,
      "byteOffset": 177252,
      "componentType": 5126,
      "count": 4165,
      "max": [
        0.983992874622345,
        0.9986385107040405,
        0.9999022483825684
      ],
      "min": [
        -0.9972021579742432,
        -0.9965053200721741,
        -0.9998326301574707
      ],
      "type": "VEC3"
    },
    {
      "bufferView": 2,
      "byteOffset": 42424,
      "componentType": 5126,
      "count": 4165,
      "max": [
        1.166991949081421,
        1.1865229606628418
      ],
      "min": [
        -0.19848600029945374,
        -0.161376953125
      ],
      "type": "VEC2"
    },
    {
      "bufferView": 1,
      "byteOffset": 104928,
      "componentType": 5125,
      "count": 10308,
      "type": "SCALAR"
    },
    {
      "bufferView": 3,
      "byteOffset": 227232,
      "componentType": 5126,
      "count": 782,
      "max": [
        1.5037873983383179,
        0.5462086200714111,
        -6.085180282592773
      ],
      "min": [
        1.0131362676620483,
        0.2032604217529297,
        -6.492611408233643
      ],
      "type": "VEC3"
    },
    {
      "bufferView": 3,
      "byteOffset": 236616,
      "componentType": 5126,
      "count": 782,
      "max": [
        0.9967333078384399,
        0.5524744391441345,
        0.9987723231315613
      ],
      "min": [
        -0.9986966252326965,
        -0.9986834526062012,
        -0.9983784556388855
      ],
      "type": "VEC3"
    },
    {
      "bufferView": 2,
      "byteOffset": 75744,
      "componentType": 5126,
      "count": 782,
      "max": [
        1.4824219942092896,
        0.9848629832267761
      ],
      "min": [
        0.007598999887704849,
        0.05197101831436157
      ],
      "type": "VEC2"
    },
    {
      "bufferView": 1,
      "byteOffset": 146160,
      "componentType": 5125,
      "count": 3456,
      "type": "SCALAR"
    },
    {
      "bufferView": 3,
      "byteOffset": 246000,
      "componentType": 5126,
      "count": 828,
      "max": [
        1.0935343503952026,
        0.8107256889343262,
        -6.096173286437988
      ],
      "min": [
        0.5419083833694458,
        0.45466136932373047,
        -6.48583984375
      ],
      "type": "VEC3"
    },
    {
      "bufferView": 3,
      "byteOffset": 255936,
      "componentType": 5126,
      "count": 828,
      "max": [
        0.983982503414154,
        0.9997981190681458,
        0.9986134171485901
      ],
      "min": [
        -0.786839485168457,
        -0.9996680021286011,
        -0.9987499713897705
      ],
      "type": "VEC3"
    },
    {
      "bufferView": 2,
      "byteOffset": 82000,
      "componentType": 5126,
      "count": 828,
      "max": [
        1.995116949081421,
        0.9946290254592896
      ],
      "min": [
        0.003898999886587262,
        0.0024989843368530273
      ],
      "type": "VEC2"
    },
    {
      "bufferView": 1,
      "byteOffset": 159984,
      "componentType": 5125,
      "count": 3468,
      "type": "SCALAR"
    },
    {
      "bufferView": 3,
      "byteOffset": 265872,
      "componentType": 5126,
      "count": 180,
      "max": [
        61.62820053100586,
        87.60197448730469,
        4.974906921386719
      ],
      "min": [
        60.751319885253906,
        85.4955825805664,
        2.899005889892578
      ],
      "type": "VEC3"
    },
    {
      "bufferView": 3,
      "byteOffset": 268032,
      "componentType": 5126,
      "count": 180,
      "max": [
        0.9946226477622986,
        0.5928849577903748,
        0.8551989197731018
      ],
      "min": [
        0.47765296697616577,
        -0.8102226257324219,
        -0.5268810391426086
      ],
      "type": "VEC3"
    },
    {
      "bufferView": 2,
      "byteOffset": 88624,
      "componentType": 5126,
      "count": 180,
      "max": [
        0.9321290254592896,
        0.9321290254592896
      ],
      "min": [
        0.06738299876451492,
        0.06738299131393433
      ],
      "type": "VEC2"
    },
    {
      "bufferView": 1,
      "byteOffset": 173856,
      "componentType": 5125,
      "count": 180,
      "type": "SCALAR"
    },
    {
      "bufferView": 3,
      "byteOffset": 270192,
      "componentType": 5126,
      "count": 180,
      "max": [
        61.62820053100586,
        87.60197448730469,
        4.974906921386719
      ],
      "min": [
        60.751319885253906,
        85.4955825805664,
        2.899005889892578
      ],
      "type": "VEC3"
    },
    {
      "bufferView": 3,
      "byteOffset": 272352,
      "componentType": 5126,
      "count": 180,
      "max": [
        0.9946226477622986,
        0.5928849577903748,
        0.8551989197731018
      ],
      "min": [
        0.47765296697616577,
        -0.8102226257324219,
        -0.5268810391426086
      ],
      "type": "VEC3"
    },
    {
      "bufferView": 2,
      "byteOffset": 90064,
      "componentType": 5126,
      "count": 180,
      "max": [
        0.9321290254592896,
        0.9321290254592896
      ],
      "min": [
        0.06738299876451492,
        0.06738299131393433
      ],
      "type": "VEC2"
    },
    {
      "bufferView": 1,
      "byteOffset": 174576,
      "componentType": 5125,
      "count": 180,
      "type": "SCALAR"
    },
    {
      "bufferView": 5,
      "componentType": 5126,
      "count": 43,
      "max": [
        1.0,
        0.9999428391456604,
        0.9994733929634094,
        0.0,
        0.44467878341674805,
        1.0,
        0.9990296363830566,
        0.0,
        0.9874139428138733,
        0.4760171175003052,
        1.0,
        0.0,
        1.6053059101104736,
        2.87746000289917,
        3.7263174057006836,
        1.0
      ],
      "min": [
        -0.9230526089668274,
        -0.999005138874054,
        -0.9997187256813049,
        0.0,
        -0.44477808475494385,
        -0.9997727870941162,
        -0.9999715089797974,
        0.0,
        -0.9999995827674866,
        -0.4809877276420593,
        -0.8705456852912903,
        0.0,
        -1.5992590188980103,
        -4.550253868103027,
        -3.455087423324585,
        1.0
      ],
      "type": "MAT4"
    },
    {
      "bufferView": 0,
      "componentType": 5123,
      "count": 1859,
      "type": "VEC4"
    },
    {
      "bufferView": 4,
      "componentType": 5126,
      "count": 1859,
      "max": [
        1.0,
        0.49953171610832214,
        0.20827466249465942,
        0.12389489263296127
      ],
      "min": [
        0.3733377158641815,
        0.0,
        0.0,
        0.0
      ],
      "type": "VEC4"
    },
    {
      "bufferView": 0,
      "byteOffset": 14872,
      "componentType": 5123,
      "count": 3444,
      "type": "VEC4"
    },
    {
      "bufferView": 4,
      "byteOffset": 29744,
      "componentType": 5126,
      "count": 3444,
      "max": [
        1.0,
        0.4996422529220581,
        0.315297394990921,
        0.2161528617143631
      ],
      "min": [
        0.2701363265514374,
        0.0,
        0.0,
        0.0
      ],
      "type": "VEC4"
    },
    {
      "bufferView": 0,
      "byteOffset": 42424,
      "componentType": 5123,
      "count": 4165,
      "type": "VEC4"
    },
    {
      "bufferView": 4,
      "byteOffset": 84848,
      "componentType": 5126,
      "count": 4165,
      "max": [
        1.0,
        0.5,
        0.33242881298065186,
        0.24100440740585327
      ],
      "min": [
        0.2718270719051361,
        0.0,
        0.0,
        0.0
      ],
      "type": "VEC4"
    }
  ],
  "asset": {
    "extras": {
      "author": "[Deleted] (https://sketchfab.com/FlyingSou)",
      "license": "CC-BY-4.0 (http://creativecommons.org/licenses/by/4.0/)",
      "source": "https://sketchfab.com/3d-models/fan-made-cod-ghosts-wolf-pup-8aeca76b65a442ae8d7d7e6c06855373",
      "title": "[Fan-made] COD: Ghost's Wolf Pup"
    },
    "generator": "Sketchfab-14.64.0",
    "version": "2.0"
  },
  "bufferViews": [
    {
      "buffer": 0,
      "byteLength": 75744,
      "byteStride": 8,
      "name": "shortBufferViews",
      "target": 34962
    },
    {
      "buffer": 0,
      "byteLength": 175296,
      "byteOffset": 75744,
      "name": "floatBufferViews",
      "target": 34963
    },
    {
      "buffer": 0,
      "byteLength": 91504,
      "byteOffset": 251040,
      "byteStride": 8,
      "name": "floatBufferViews",
      "target": 34962
    },
    {
      "buffer": 0,
      "byteLength": 274512,
      "byteOffset": 342544,
      "byteStride": 12,
      "name": "floatBufferViews",
      "target": 34962
    },
    {
      "buffer": 0,
      "byteLength": 151488,
      "byteOffset": 617056,
      "byteStride": 16,
      "name": "floatBufferViews",
      "target": 34962
    },
    {
      "buffer": 0,
      "byteLength": 2752,
      "byteOffset": 768544,
      "name": "floatBufferViews"
    }
  ],
  "buffers": [
    {
      "byteLength": 771296,
      "uri": "scene.bin"
    }
  ],
  "extensionsUsed": [
    "KHR_materials_specular"
  ],
  "images": [
    {
      "uri": "textures/mtl_wolf_a_head_a.003_baseColor.png"
    },
    {
      "uri": "textures/mtl_wolf_a_body_a.003_baseColor.png"
    },
    {
      "uri": "textures/mtl_wolf_a_hair_a_body.001_baseColor.png"
    },
    {
      "uri": "textures/mtl_wolf_mouth.002_baseColor.png"
    },
    {
      "uri": "textures/mtl_shiny_lense_eye.002_baseColor.png"
    }
  ],
  "materials": [
    {
      "doubleSided": true,
      "extensions": {
        "KHR_materials_specular": {
          "specularColorFactor": [
            1.0,
            1.0,
            1.0
          ],
          "specularFactor": 1.0
        }
      },
      "name": "mtl_wolf_a_head_a.003",
      "pbrMetallicRoughness": {
        "baseColorTexture": {
          "index": 0
        },
        "metallicFactor": 0.0,
        "roughnessFactor": 0.91358
      }
    },
    {
      "doubleSided": true,
      "extensions": {
        "KHR_materials_specular": {
          "specularColorFactor": [
            1.0,
            1.0,
            1.0
          ],
          "specularFactor": 0.047238239202252806
        }
      },
      "name": "mtl_wolf_a_body_a.003",
      "pbrMetallicRoughness": {
        "baseColorTexture": {
          "index": 1
        },
        "metallicFactor": 0.0,
        "roughnessFactor": 0.91358
      }
    },
    {
      "alphaMode": "BLEND",
      "doubleSided": true,
      "extensions": {
        "KHR_materials_specular": {
          "specularColorFactor": [
            1.0,
            1.0,
            1.0
          ],
          "specularFactor": 0.03504772585973595
        }
      },
      "name": "mtl_wolf_a_hair_a_body.001",
      "pbrMetallicRoughness": {
        "baseColorTexture": {
          "index": 2
        },
        "metallicFactor": 0.0,
        "roughnessFactor": 0.5
      }
    },
    {
      "doubleSided": true,
      "extensions": {
        "KHR_materials_specular": {
          "specularColorFactor": [
            1.0,
            1.0,
            1.0
          ],
          "specularFactor": 1.0
        }
      },
      "name": "mtl_wolf_mouth.002",
      "pbrMetallicRoughness": {
        "baseColorTexture": {
          "index": 3
        },
        "metallicFactor": 0.259843,
        "roughnessFactor": 0.5
      }
    },
    {
      "doubleSided": true,
      "name": "mtl_shiny_lense_eye.002",
      "pbrMetallicRoughness": {
        "baseColorTexture": {
          "index": 4
        },
        "metallicFactor": 0.0,
        "roughnessFactor": 0.0864198
      }
    }
  ],
  "meshes": [
    {
      "name": "Object_0",
      "primitives": [
        {
          "attributes": {
            "JOINTS_0": 29,
            "NORMAL": 1,
            "POSITION": 0,
            "TEXCOORD_0": 2,
            "WEIGHTS_0": 30
          },
          "indices": 3,
          "material": 0,
          "mode": 4
        }
      ]
    },
    {
      "name": "Object_1",
      "primitives": [
        {
          "attributes": {
            "JOINTS_0": 31,
            "NORMAL": 5,
            "POSITION": 4,
            "TEXCOORD_0": 6,
            "WEIGHTS_0": 32
          },
          "indices": 7,
          "material": 1,
          "mode": 4
        }
      ]
    },
    {
      "name": "Object_2",
      "primitives": [
        {
          "attributes": {
            "JOINTS_0": 33,
            "NORMAL": 9,
            "POSITION": 8,
            "TEXCOORD_0": 10,
            "WEIGHTS_0": 34
          },
          "indices": 11,
          "material": 2,
          "mode": 4
        }
      ]
    },
    {
      "name": "Object_3",
      "primitives": [
        {
          "attributes": {
            "NORMAL": 13,
            "POSITION": 12,
            "TEXCOORD_0": 14
          },
          "indices": 15,
          "material": 3,
          "mode": 4
        }
      ]
    },
    {
      "name": "Object_4",
      "primitives": [
        {
          "attributes": {
            "NORMAL": 17,
            "POSITION": 16,
            "TEXCOORD_0": 18
          },
          "indices": 19,
          "material": 3,
          "mode": 4
        }
      ]
    },
    {
      "name": "Object_5",
      "primitives": [
        {
          "attributes": {
            "NORMAL": 21,
            "POSITION": 20,
            "TEXCOORD_0": 22
          },
          "indices": 23,
          "material": 4,
          "mode": 4
        }
      ]
    },
    {
      "name": "Object_6",
      "primitives": [
        {
          "attributes": {
            "NORMAL": 25,
            "POSITION": 24,
            "TEXCOORD_0": 26
          },
          "indices": 27,
          "material": 4,
          "mode": 4
        }
      ]
    }
  ],
  "nodes": [
    {
      "children": [
        1
      ],
      "matrix": [
        1.0,
        0.0,
        0.0,
        0.0,
        0.0,
        2.220446049250313e-16,
        -1.0,
        0.0,
        0.0,
        1.0,
        2.220446049250313e-16,
        0.0,
        0.0,
        0.0,
        0.0,
        1.0
      ],
      "name": "Sketchfab_model"
    },
    {
      "children": [
        2
      ],
      "name": "root"
    },
    {
      "children": [
        3
      ],
      "matrix": [
        1.0,
        0.0,
        0.0,
        0.0,
        0.0,
        2.220446049250313e-16,
        1.0,
        0.0,
        0.0,
        -1.0,
        2.220446049250313e-16,
        0.0,
        0.0,
        0.0,
        0.0,
        1.0
      ],
      "name": "GLTF_SceneRootNode"
    },
    {
      "children": [
        4
      ],
      "matrix": [
        0.007789650737196174,
        6.568985785446787e-05,
        -0.9999696580528008,
        0.0,
        -0.00843272600553881,
        0.9999644439339408,
        -4.681782834678461e-10,
        0.0,
        0.9999341030655511,
        0.008432470143858551,
        0.007789927712432587,
        0.0,
        0.415574312210083,
        -0.3072647452354431,
        -0.007119655609130859,
        1.0
      ],
      "name": "Wolf.001_48"
    },
    {
      "children": [
        5,
        7,
        8,
        10,
        6,
        9
      ],
      "name": "GLTF_created_0"
    },
    {
      "children": [
        11
      ],
      "name": "GLTF_created_0_rootJoint"
    },
    {
      "name": "mp_fullbody_wolf_b_LOD0.001_46"
    },
    {
      "mesh": 0,
      "name": "Object_7",
      "skin": 0
    },
    {
      "mesh": 1,
      "name": "Object_8",
      "skin": 0
    },
    {
      "name": "mp_fullbody_wolf_b_LOD0.005_47"
    },
    {
      "mesh": 2,
      "name": "Object_10",
      "skin": 0
    },
    {
      "children": [
        12
      ],
      "name": "Root_45",
      "rotation": [
        0.005293529946357012,
        -0.012334533035755157,
        0.008550439029932022,
        0.9998733997344971
      ],
      "scale": [
        0.9999998807907104,
        1.0,
        1.0
      ],
      "translation": [
        0.012760111130774021,
        0.008657691068947315,
        -0.24379071593284607
      ]
    },
    {
      "children": [
        13,
        17,
        53,
        57
      ],
      "name": "spine.004_44",
      "rotation": [
        0.8216606974601746,
        -0.0019162612734362483,
        -0.008314589038491249,
        0.5699130892753601
      ],
      "scale": [
        1.0,
        0.9999998211860657,
        0.9999999403953552
      ],
      "translation": [
        0.014417000114917755,
        3.4263787269592285,
        -1.2965593338012695
      ]
    },
    {
      "children": [
        14
      ],
      "name": "spine.003_3",
      "rotation": [
        -0.9993832111358643,
        0.00406221579760313,
        -0.003013470908626914,
        0.034751031547784805
      ],
      "scale": [
        1.0,
        1.0000001192092896,
        1.000005841255188
      ],
      "translation": [
        8.381903171539307e-09,
        1.7997808754444122e-07,
        2.702872734516859e-07
      ]
    },
    {
      "children": [
        15
      ],
      "name": "spine.002_2",
      "rotation": [
        -0.23843678832054138,
        0.00046136623132042587,
        0.001737802056595683,
        0.9711563587188721
      ],
      "scale": [
        0.9999999403953552,
        1.0,
        1.0
      ],
      "translation": [
        0.0,
        0.5892652273178101,
        -3.902678145095706e-07
      ]
    },
    {
      "children": [
        16
      ],
      "name": "spine.001_1",
      "rotation": [
        0.003973632585257292,
        -2.359655582040432e-06,
        -0.00010890635894611478,
        0.9999921321868896
      ],
      "scale": [
        0.9999999403953552,
        1.0,
        0.9999998807907104
      ],
      "translation": [
        -2.7939677238464355e-09,
        0.7711113095283508,
        -1.5174009604379535e-08
      ]
    },
    {
      "name": "spine_0",
      "rotation": [
        0.09060723334550858,
        9.267680979974102e-06,
        -0.00014774802548345178,
        0.9958866834640503
      ],
      "scale": [
        1.0,
        1.0000001192092896,
        1.0
      ],
      "translation": [
        2.7939677238464355e-09,
        0.6040762662887573,
        -1.280932337976992e-07
      ]
    },
    {
      "children": [
        18,
        51,
        52
      ],
      "name": "spine.005_35",
      "rotation": [
        -0.10968288779258728,
        -0.003029621671885252,
        -0.005873024929314852,
        0.9939447045326233
      ],
      "scale": [
        0.9999998807907104,
        0.9999999403953552,
        0.9999999403953552
      ],
      "translation": [
        4.190951585769653e-09,
        0.6457667350769043,
        -4.453613655641675e-08
      ]
    },
    {
      "children": [
        19
      ],
      "name": "spine.006_32",
      "rotation": [
        -0.07378191500902176,
        -7.692747203691397e-06,
        -0.00011977689428022131,
        0.9972743988037109
      ],
      "scale": [
        1.0,
        1.0,
        0.9999999403953552
      ],
      "translation": [
        2.3283064365386963e-10,
        0.5821549892425537,
        -8.195365808205679e-08
      ]
    },
    {
      "children": [
        20
      ],
      "name": "spine.007_31",
      "rotation": [
        -0.2162216305732727,
        0.00010595446656225249,
        0.0008553026127628982,
        0.9763439893722534
      ],
      "scale": [
        1.0,
        1.0,
        1.0000001192092896
      ],
      "translation": [
        -9.313225746154785e-10,
        0.5245075225830078,
        6.087225301598664e-08
      ]
    },
    {
      "children": [
        21,
        39,
        44,
        49,
        50
      ],
      "name": "spine.008_30",
      "rotation": [
        0.011716020293533802,
        0.000675496063195169,
        -0.008337386883795261,
        0.9998964071273804
      ],
      "translation": [
        -9.313225746154785e-10,
        0.4200579822063446,
        -5.382971721701324e-07
      ]
    },
    {
      "children": [
        22
      ],
      "name": "spine.009_17",
      "rotation": [
        -0.06703760474920273,
        -0.000977062270976603,
        0.007635539397597313,
        0.9977208375930786
      ],
      "scale": [
        1.0,
        0.9999999403953552,
        1.0000001192092896
      ],
      "translation": [
        9.313225746154785e-10,
        0.2820553481578827,
        1.7252182260563131e-07
      ]
    },
    {
      "children": [
        23
      ],
      "name": "spine.010_16",
      "rotation": [
        -0.06792197376489639,
        0.0006722362595610321,
        -0.004703426733613014,
        0.9976793527603149
      ],
      "scale": [
        0.9999999403953552,
        1.0,
        1.0
      ],
      "translation": [
        -1.3969838619232178e-09,
        0.23032234609127045,
        -2.2104904928710312e-07
      ]
    },
    {
      "children": [
        24,
        26,
        28,
        30,
        33,
        36
      ],
      "name": "Head_15",
      "rotation": [
        -0.3426433801651001,
        3.293643385404721e-05,
        0.0010664572473615408,
        0.9394649267196655
      ],
      "translation": [
        -5.238689482212067e-10,
        0.405242919921875,
        -1.0946678230538964e-07
      ]
    },
    {
      "children": [
        25
      ],
      "matrix": [
        0.002841122946085921,
        0.21129299999684,
        0.977418578175929,
        0.0,
        0.000946717612571929,
        0.9774216914774184,
        -0.21129642489587394,
        0.0,
        -0.9999957542801657,
        0.001525658776820773,
        0.002576940851941381,
        0.0,
        -6.304213047027588,
        -0.6471086144447327,
        -0.5752758979797363,
        1.0
      ],
      "name": "mp_fullbody_wolf_b_LOD0.008_14"
    },
    {
      "mesh": 3,
      "name": "Object_25"
    },
    {
      "children": [
        27
      ],
      "name": "Ear_R_5",
      "rotation": [
        0.057117611169815063,
        0.041068077087402344,
        0.22537744045257568,
        0.9717283248901367
      ],
      "scale": [
        0.9999998807907104,
        1.0,
        1.0
      ],
      "translation": [
        -0.312749445438385,
        0.5090873837471008,
        -0.1484469771385193
      ]
    },
    {
      "name": "EarTip_R.001_4",
      "rotation": [
        0.038763295859098434,
        -0.018208105117082596,
        -0.17077867686748505,
        0.9843782782554626
      ],
      "scale": [
        1.0,
        0.9999999403953552,
        0.9999999403953552
      ],
      "translation": [
        1.1920928955078125e-07,
        0.1922435313463211,
        3.725290298461914e-09
      ]
    },
    {
      "children": [
        29
      ],
      "name": "Ear_L_7",
      "rotation": [
        0.05919996276497841,
        -0.045755237340927124,
        -0.22371584177017212,
        0.9717783331871033
      ],
      "scale": [
        0.9999999403953552,
        0.9999999403953552,
        0.9999999403953552
      ],
      "translation": [
        0.3054427206516266,
        0.5098099708557129,
        -0.1441372185945511
      ]
    },
    {
      "name": "EarTip_L.001_6",
      "rotation": [
        0.023108944296836853,
        0.015479768626391888,
        0.17114681005477905,
        0.9848528504371643
      ],
      "translation": [
        2.421438694000244e-08,
        0.19224335253238678,
        -1.0803341865539551e-07
      ]
    },
    {
      "children": [
        31
      ],
      "name": "Jaw_9",
      "rotation": [
        0.9108385443687439,
        0.0002491511986590922,
        -0.0028537879697978497,
        0.4127529263496399
      ],
      "scale": [
        1.0,
        1.0,
        1.000000238418579
      ],
      "translation": [
        0.0039904117584228516,
        -0.13013941049575806,
        0.1833304911851883
      ]
    },
    {
      "children": [
        32
      ],
      "matrix": [
        -0.0027603261825744573,
        0.6108019853396479,
        -0.7917783513564093,
        0.0,
        0.00027042086116359546,
        -0.7917811188948974,
        -0.610805063054241,
        0.0,
        -0.9999963921448731,
        -0.0019001351579065137,
        0.0020204011566041136,
        0.0,
        -6.300344467163086,
        0.2815357744693756,
        0.9791797995567322,
        1.0
      ],
      "name": "mp_fullbody_wolf_b_LOD0.007_8"
    },
    {
      "mesh": 4,
      "name": "Object_32"
    },
    {
      "children": [
        34
      ],
      "name": "Eye_R_11",
      "rotation": [
        0.6471596956253052,
        6.539749301737174e-05,
        -0.0019359681755304337,
        0.7623519897460938
      ],
      "scale": [
        1.0,
        0.9999998807907104,
        0.9999998807907104
      ],
      "translation": [
        -0.21546393632888794,
        0.23924073576927185,
        0.2570211589336395
      ]
    },
    {
      "children": [
        35
      ],
      "matrix": [
        -0.002101951254288617,
        0.04068601383306345,
        -0.004419555644688855,
        0.0,
        -0.0019898963667348184,
        -0.00531218969434169,
        -0.047957119507837355,
        0.0,
        -0.05306744392096769,
        -0.0024726698920327374,
        0.002475836884840397,
        0.0,
        0.5030144453048706,
        -1.8667752742767334,
        4.408996105194092,
        1.0
      ],
      "name": "mp_fullbody_wolf_b_LOD0.006_10"
    },
    {
      "mesh": 5,
      "name": "Object_35"
    },
    {
      "children": [
        37
      ],
      "name": "Eye_L_13",
      "rotation": [
        0.6471261382102966,
        -0.003874966176226735,
        0.00799492746591568,
        0.7623311877250671
      ],
      "scale": [
        0.9999998807907104,
        1.0,
        0.9999998807907104
      ],
      "translation": [
        0.2158213108778,
        0.24402382969856262,
        0.2591537833213806
      ]
    },
    {
      "children": [
        38
      ],
      "matrix": [
        -0.0009921323507763229,
        0.0405277750954722,
        -0.006623548811364937,
        -0.0,
        -0.0013454303666404295,
        -0.007804906667129502,
        -0.04755466684470708,
        -0.0,
        0.05314497448227007,
        0.0010277031406831507,
        -0.0016722646771349648,
        -0.0,
        -0.031599968671798706,
        -1.6572304964065552,
        4.520454406738281,
        1.0
      ],
      "name": "mp_fullbody_wolf_b_LOD0.010_12"
    },
    {
      "mesh": 6,
      "name": "Object_38"
    },
    {
      "children": [
        40
      ],
      "name": "shoulder.L_22",
      "rotation": [
        0.7072120904922485,
        0.1744077354669571,
        -0.0814499780535698,
        0.6802933216094971
      ],
      "scale": [
        0.9999999403953552,
        0.9999998807907104,
        0.9999998807907104
      ],
      "translation": [
        0.29131031036376953,
        -0.1771641969680786,
        -0.28869301080703735
      ]
    },
    {
      "children": [
        41
      ],
      "name": "front_thigh.L_21",
      "rotation": [
        0.28985947370529175,
        -0.02974376454949379,
        0.18554115295410156,
        0.9384409189224243
      ],
      "scale": [
        1.0,
        0.9999998211860657,
        0.9999998807907104
      ],
      "translation": [
        -0.1315765231847763,
        0.8711903691291809,
        -0.03457946330308914
      ]
    },
    {
      "children": [
        42
      ],
      "name": "front_shin.L_20",
      "rotation": [
        -0.05949118733406067,
        -0.01550419069826603,
        0.012974707409739494,
        0.9980241060256958
      ],
      "scale": [
        1.0,
        0.9999999403953552,
        1.0
      ],
      "translation": [
        -1.0244548320770264e-08,
        0.816336452960968,
        2.60770320892334e-08
      ]
    },
    {
      "children": [
        43
      ],
      "name": "front_foot.L_19",
      "rotation": [
        -0.1177171990275383,
        -0.003269386012107134,
        -0.11327356845140457,
        0.9865602254867554
      ],
      "scale": [
        1.0000001192092896,
        1.0,
        1.0000001192092896
      ],
      "translation": [
        -2.7008354663848877e-08,
        1.0736966133117676,
        -3.725290298461914e-08
      ]
    },
    {
      "name": "front_toe.L_18",
      "rotation": [
        0.09652961790561676,
        0.890640914440155,
        -0.41762861609458923,
        0.15174706280231476
      ],
      "scale": [
        1.0000001192092896,
        1.000000238418579,
        0.9999999403953552
      ],
      "translation": [
        4.0978193283081055e-08,
        0.35779741406440735,
        -1.862645149230957e-09
      ]
    },
    {
      "children": [
        45
      ],
      "name": "shoulder.R_27",
      "rotation": [
        0.7095963954925537,
        -0.16718782484531403,
        0.09168842434883118,
        0.6783174276351929
      ],
      "scale": [
        0.9999999403953552,
        1.0000001192092896,
        1.0000001192092896
      ],
      "translation": [
        -0.2790375053882599,
        -0.18533360958099365,
        -0.2901262938976288
      ]
    },
    {
      "children": [
        46
      ],
      "name": "front_thigh.R_26",
      "rotation": [
        0.2893558442592621,
        0.030819440260529518,
        -0.18797005712985992,
        0.9380781650543213
      ],
      "scale": [
        1.0,
        0.9999999403953552,
        0.9999998807907104
      ],
      "translation": [
        0.1333511769771576,
        0.8704530596733093,
        -0.03527927026152611
      ]
    },
    {
      "children": [
        47
      ],
      "name": "front_shin.R_25",
      "rotation": [
        -0.05969291552901268,
        0.015462704934179783,
        -0.01057469379156828,
        0.998041033744812
      ],
      "scale": [
        0.9999998807907104,
        0.9999997019767761,
        0.9999999403953552
      ],
      "translation": [
        1.0710209608078003e-08,
        0.8163602352142334,
        6.332993507385254e-08
      ]
    },
    {
      "children": [
        48
      ],
      "name": "front_foot.R_24",
      "rotation": [
        -0.11753793060779572,
        0.003646991215646267,
        0.11448574811220169,
        0.9864403605461121
      ],
      "scale": [
        1.0000001192092896,
        1.0000001192092896,
        1.0000001192092896
      ],
      "translation": [
        2.0954757928848267e-08,
        1.073667287826538,
        4.842877388000488e-08
      ]
    },
    {
      "name": "front_toe.R_23",
      "rotation": [
        0.09305970370769501,
        -0.8737225532531738,
        0.4559645652770996,
        0.14158061146736145
      ],
      "scale": [
        1.0,
        1.0,
        1.000000238418579
      ],
      "translation": [
        5.587935447692871e-08,
        0.3580571115016937,
        -4.0978193283081055e-08
      ]
    },
    {
      "name": "breast.L_28",
      "rotation": [
        0.5879279971122742,
        0.0027221578639000654,
        0.006188597530126572,
        0.8088849782943726
      ],
      "scale": [
        0.9999998807907104,
        1.0,
        1.0
      ],
      "translation": [
        0.1739605963230133,
        -0.5071380734443665,
        0.12334076315164566
      ]
    },
    {
      "name": "breast.R_29",
      "rotation": [
        0.587928056716919,
        0.0027221590280532837,
        0.006188597995787859,
        0.8088849782943726
      ],
      "scale": [
        0.9999998807907104,
        1.0000001192092896,
        1.0
      ],
      "translation": [
        -0.15140561759471893,
        -0.5117985606193542,
        0.12252306938171387
      ]
    },
    {
      "name": "pelvis.L_33",
      "rotation": [
        -0.46470674872398376,
        -0.689961850643158,
        0.4482440948486328,
        0.3272271156311035
      ],
      "scale": [
        0.9999999403953552,
        1.0000001192092896,
        1.0
      ],
      "translation": [
        0.0027961935847997665,
        -0.7250712513923645,
        0.807630181312561
      ]
    },
    {
      "name": "pelvis.R_34",
      "rotation": [
        -0.46385449171066284,
        0.689515233039856,
        -0.4491259753704071,
        0.3281671106815338
      ],
      "scale": [
        1.0,
        1.0000001192092896,
        1.0
      ],
      "translation": [
        0.0027961935847997665,
        -0.7250712513923645,
        0.807630181312561
      ]
    },
    {
      "children": [
        54
      ],
      "name": "thigh.L_39",
      "rotation": [
        0.5777273178100586,
        -0.006282791029661894,
        0.00018522943719290197,
        0.8162056803703308
      ],
      "scale": [
        0.9999999403953552,
        1.0,
        1.0
      ],
      "translation": [
        0.5920789241790771,
        -0.026601335033774376,
        0.2543581426143646
      ]
    },
    {
      "children": [
        55
      ],
      "name": "shin.L_38",
      "rotation": [
        0.1885657012462616,
        -0.02519156038761139,
        0.05813975632190704,
        0.9800143241882324
      ],
      "scale": [
        0.9999999403953552,
        0.9999998807907104,
        1.0
      ],
      "translation": [
        3.3527612686157227e-08,
        1.0637372732162476,
        8.149072527885437e-08
      ]
    },
    {
      "children": [
        56
      ],
      "name": "foot.L_37",
      "rotation": [
        -0.27098095417022705,
        -0.008371059782803059,
        -0.11073172837495804,
        0.9561578035354614
      ],
      "scale": [
        0.9999999403953552,
        0.9999999403953552,
        0.9999999403953552
      ],
      "translation": [
        4.470348358154297e-08,
        0.9721980690956116,
        -1.601874828338623e-07
      ]
    },
    {
      "name": "toe.L_36",
      "rotation": [
        0.006053925957530737,
        0.8981057405471802,
        -0.4366830885410309,
        0.05174250528216362
      ],
      "scale": [
        1.0,
        0.9999997615814209,
        1.0
      ],
      "translation": [
        1.6763806343078613e-08,
        0.7293166518211365,
        1.0617077350616455e-07
      ]
    },
    {
      "children": [
        58
      ],
      "name": "thigh.R_43",
      "rotation": [
        0.5776657462120056,
        -0.006280974484980106,
        0.00018270612054038793,
        0.8162491917610168
      ],
      "scale": [
        0.9999998807907104,
        1.0,
        1.000000238418579
      ],
      "translation": [
        -0.60317462682724,
        -0.013865100219845772,
        0.24371649324893951
      ]
    },
    {
      "children": [
        59
      ],
      "name": "shin.R_42",
      "rotation": [
        0.18415111303329468,
        0.019529668614268303,
        -0.04582786187529564,
        0.9816347360610962
      ],
      "scale": [
        0.9999999403953552,
        0.9999999403953552,
        1.0000001192092896
      ],
      "translation": [
        7.310882210731506e-08,
        1.065248727798462,
        4.0046870708465576e-08
      ]
    },
    {
      "children": [
        60
      ],
      "name": "foot.R_41",
      "rotation": [
        -0.2609274983406067,
        0.012800409458577633,
        0.09863622486591339,
        0.9602207541465759
      ],
      "scale": [
        1.0,
        1.0,
        1.0000001192092896
      ],
      "translation": [
        4.470348358154297e-08,
        0.9763270616531372,
        1.2479722499847412e-07
      ]
    },
    {
      "name": "toe.R_40",
      "rotation": [
        0.007089936174452305,
        -0.8937861323356628,
        0.4451391100883484,
        0.05428918078541756
      ],
      "scale": [
        0.9999999403953552,
        0.9999998807907104,
        1.0
      ],
      "translation": [
        1.862645149230957e-09,
        0.7166258096694946,
        -1.341104507446289e-07
      ]
    }
  ],
  "samplers": [
    {
      "magFilter": 9729,
      "minFilter": 9987,
      "wrapS": 10497,
      "wrapT": 10497
    }
  ],
  "scene": 0,
  "scenes": [
    {
      "name": "Sketchfab_Scene",
      "nodes": [
        0
      ]
    }
  ],
  "skins": [
    {
      "inverseBindMatrices": 28,
      "joints": [
        5,
        11,
        12,
        13,
        14,
        15,
        16,
        17,
        18,
        19,
        20,
        21,
        22,
        23,
        26,
        27,
        28,
        29,
        30,
        33,
        36,
        39,
        40,
        41,
        42,
        43,
        44,
        45,
        46,
        47,
        48,
        49,
        50,
        51,
        52,
        53,
        54,
        55,
        56,
        57,
        58,
        59,
        60
      ],
      "skeleton": 5
    }
  ],
  "textures": [
    {
      "sampler": 0,
      "source": 0
    },
    {
      "sampler": 0,
      "source": 1
    },
    {
      "sampler": 0,
      "source": 2
    },
    {
      "sampler": 0,
      "source": 3
    },
    {
      "sampler": 0,
      "source": 4
    }
  ]
}
