{
  "accessors": [
    {
      "bufferView": 2,
      "componentType": 5126,
      "count": 8639,
      "max": [
        4.084024906158447,
        -8.15216064453125,
        3.0334689617156982
      ],
      "min": [
        -2.8385660648345947,
        -24.35401725769043,
        -4.2187089920043945
      ],
      "type": "VEC3"
    },
    {
      "bufferView": 2,
      "byteOffset": 103668,
      "componentType": 5126,
      "count": 8639,
      "max": [
        0.9999350309371948,
        0.9999987483024597,
        0.9999019503593445
      ],
      "min": [
        -0.9997051358222961,
        -0.9999990463256836,
        -0.9999617338180542
      ],
      "type": "VEC3"
    },
    {
      "bufferView": 3,
      "componentType": 5126,
      "count": 8639,
      "max": [
        1.0,
        0.9999998807907104,
        0.9947695732116699,
        1.0
      ],
      "min": [
        -0.9999988079071045,
        -1.0,
        -0.991696834564209,
        -1.0
      ],
      "type": "VEC4"
    },
    {
      "bufferView": 1,
      "componentType": 5126,
      "count": 8639,
      "max": [
        0.998772919178009,
        0.9982908964157104
      ],
      "min": [
        0.000244140625,
        0.0012352062622085214
      ],
      "type": "VEC2"
    },
    {
      "bufferView": 0,
      "componentType": 5125,
      "count": 31290,
      "type": "SCALAR"
    }
  ],
  "asset": {
    "extras": {
      "author": "lightdatavision (https://sketchfab.com/lightdatavision)",
      "license": "CC-BY-4.0 (http://creativecommons.org/licenses/by/4.0/)",
      "source": "https://sketchfab.com/3d-models/angel-statue-2277c9884ccf42c6a049230a2b33dd12",
      "title": "Angel Statue"
    },
    "generator": "Sketchfab-15.25.0",
    "version": "2.0"
  },
  "bufferViews": [
    {
      "buffer": 0,
      "byteLength": 125160,
      "name": "floatBufferViews",
      "target": 34963
    },
    {
      "buffer": 0,
      "byteLength": 69112,
      "byteOffset": 125160,
      "byteStride": 8,
      "name": "floatBufferViews",
      "target": 34962
    },
    {
      "buffer": 0,
      "byteLength": 207336,
      "byteOffset": 194272,
      "byteStride": 12,
      "name": "floatBufferViews",
      "target": 34962
    },
    {
      "buffer": 0,
      "byteLength": 138224,
      "byteOffset": 401608,
      "byteStride": 16,
      "name": "floatBufferViews",
      "target": 34962
    }
  ],
  "buffers": [
    {
      "byteLength": 539832,
      "uri": "scene.bin"
    }
  ],
  "images": [
    {
      "uri": "textures/lowpolyangel99_u1_v1_baseColor.png"
    },
    {
      "uri": "textures/lowpolyangel99_u1_v1_normal.png"
    }
  ],
  "materials": [
    {
      "doubleSided": true,
      "name": "lowpolyangel99_u1_v1",
      "normalTexture": {
        "index": 1
      },
      "pbrMetallicRoughness": {
        "baseColorTexture": {
          "index": 0
        },
        "metallicFactor": 0.0
      }
    }
  ],
  "meshes": [
    {
      "name": "Object_0",
      "primitives": [
        {
          "attributes": {
            "NORMAL": 1,
            "POSITION": 0,
            "TANGENT": 2,
            "TEXCOORD_0": 3
          },
          "indices": 4,
          "material": 0,
          "mode": 4
        }
      ]
    }
  ],
  "nodes": [
    {
      "children": [
        1
      ],
      "matrix": [
        -0.9280861616134644,
        0.04140317440032951,
        0.37005653977394104,
        0.0,
        -0.0370025560259819,
        -0.9991347789764404,
        0.018985724076628463,
        0.0,
        0.3705224394798279,
        0.0039273495785889945,
        0.9288151860237122,
        0.0,
        0.0,
        0.0,
        0.0,
        1.0
      ],
      "name": "Sketchfab_model"
    },
    {
      "children": [
        2
      ],
      "name": "lowpolyangel99.obj.cleaner.materialmerger.gles"
    },
    {
      "mesh": 0,
      "name": "Object_2"
    }
  ],
  "samplers": [
    {
      "magFilter": 9729,
      "minFilter": 9987,
      "wrapS": 10497,
      "wrapT": 10497
    }
  ],
  "scene": 0,
  "scenes": [
    {
      "name": "Sketchfab_Scene",
      "nodes": [
        0
      ]
    }
  ],
  "textures": [
    {
      "sampler": 0,
      "source": 0
    },
    {
      "sampler": 0,
      "source": 1
    }
  ]
}
