{
  "accessors": [
    {
      "bufferView": 1,
      "componentType": 5126,
      "count": 65532,
      "max": [
        5.583156585693359,
        5.425642490386963,
        3.9987220764160156
      ],
      "min": [
        1.3548482656478882,
        -0.4922267198562622,
        0.23608775436878204
      ],
      "type": "VEC3"
    },
    {
      "bufferView": 1,
      "byteOffset": 786384,
      "componentType": 5126,
      "count": 65532,
      "max": [
        0.9999902248382568,
        0.999954879283905,
        0.9997153878211975
      ],
      "min": [
        -0.9999927282333374,
        -0.9999902248382568,
        -0.9980069398880005
      ],
      "type": "VEC3"
    },
    {
      "bufferView": 2,
      "componentType": 5126,
      "count": 65532,
      "max": [
        0.9843137264251709,
        0.9921568632125854,
        0.9843137264251709,
        1.0
      ],
      "min": [
        0.05882352963089943,
        0.0470588244497776,
        0.0470588244497776,
        1.0
      ],
      "type": "VEC4"
    },
    {
      "bufferView": 0,
      "componentType": 5125,
      "count": 325452,
      "type": "SCALAR"
    },
    {
      "bufferView": 1,
      "byteOffset": 1572768,
      "componentType": 5126,
      "count": 65532,
      "max": [
        5.633805751800537,
        4.892336368560791,
        4.0087103843688965
      ],
      "min": [
        1.434043049812317,
        -0.42164209485054016,
        0.23405596613883972
      ],
      "type": "VEC3"
    },
    {
      "bufferView": 1,
      "byteOffset": 2359152,
      "componentType": 5126,
      "count": 65532,
      "max": [
        0.999999463558197,
        0.9999805092811584,
        0.999994695186615
      ],
      "min": [
        -0.9999831318855286,
        -0.9999222755432129,
        -0.9973611831665039
      ],
      "type": "VEC3"
    },
    {
      "bufferView": 2,
      "byteOffset": 1048512,
      "componentType": 5126,
      "count": 65532,
      "max": [
        1.0,
        1.0,
        1.0,
        1.0
      ],
      "min": [
        0.003921568859368563,
        0.0117647061124444,
        0.0313725508749485,
        1.0
      ],
      "type": "VEC4"
    },
    {
      "bufferView": 0,
      "byteOffset": 1301808,
      "componentType": 5125,
      "count": 320931,
      "type": "SCALAR"
    },
    {
      "bufferView": 1,
      "byteOffset": 3145536,
      "componentType": 5126,
      "count": 65532,
      "max": [
        5.673367977142334,
        3.9236583709716797,
        3.904236316680908
      ],
      "min": [
        1.351908564567566,
        -0.42906326055526733,
        0.23466400802135468
      ],
      "type": "VEC3"
    },
    {
      "bufferView": 1,
      "byteOffset": 3931920,
      "componentType": 5126,
      "count": 65532,
      "max": [
        0.9999972581863403,
        0.9998750686645508,
        0.9999813437461853
      ],
      "min": [
        -0.9999969601631165,
        -0.999990701675415,
        -0.988041877746582
      ],
      "type": "VEC3"
    },
    {
      "bufferView": 2,
      "byteOffset": 2097024,
      "componentType": 5126,
      "count": 65532,
      "max": [
        1.0,
        1.0,
        1.0,
        1.0
      ],
      "min": [
        0.003921568859368563,
        0.0117647061124444,
        0.027450980618596077,
        1.0
      ],
      "type": "VEC4"
    },
    {
      "bufferView": 0,
      "byteOffset": 2585532,
      "componentType": 5125,
      "count": 311259,
      "type": "SCALAR"
    },
    {
      "bufferView": 1,
      "byteOffset": 4718304,
      "componentType": 5126,
      "count": 65532,
      "max": [
        5.669556140899658,
        2.495816230773926,
        4.002148151397705
      ],
      "min": [
        1.3548482656478882,
        -0.49214401841163635,
        0.23214876651763916
      ],
      "type": "VEC3"
    },
    {
      "bufferView": 1,
      "byteOffset": 5504688,
      "componentType": 5126,
      "count": 65532,
      "max": [
        0.999983549118042,
        0.9994934797286987,
        0.9999711513519287
      ],
      "min": [
        -0.9999927282333374,
        -0.999990701675415,
        -0.994105339050293
      ],
      "type": "VEC3"
    },
    {
      "bufferView": 2,
      "byteOffset": 3145536,
      "componentType": 5126,
      "count": 65532,
      "max": [
        1.0,
        1.0,
        1.0,
        1.0
      ],
      "min": [
        0.0117647061124444,
        0.0117647061124444,
        0.019607843831181526,
        1.0
      ],
      "type": "VEC4"
    },
    {
      "bufferView": 0,
      "byteOffset": 3830568,
      "componentType": 5125,
      "count": 312645,
      "type": "SCALAR"
    },
    {
      "bufferView": 1,
      "byteOffset": 6291072,
      "componentType": 5126,
      "count": 19366,
      "max": [
        5.673367977142334,
        2.4265849590301514,
        4.0087103843688965
      ],
      "min": [
        1.351908564567566,
        1.0761743783950806,
        0.23339946568012238
      ],
      "type": "VEC3"
    },
    {
      "bufferView": 1,
      "byteOffset": 6523464,
      "componentType": 5126,
      "count": 19366,
      "max": [
        0.9999902248382568,
        0.9997004866600037,
        0.9999984502792358
      ],
      "min": [
        -0.9999800324440002,
        -0.9882076978683472,
        -0.9978398680686951
      ],
      "type": "VEC3"
    },
    {
      "bufferView": 2,
      "byteOffset": 4194048,
      "componentType": 5126,
      "count": 19366,
      "max": [
        0.9725490212440491,
        0.95686274766922,
        0.9647058844566345,
        1.0
      ],
      "min": [
        0.003921568859368563,
        0.003921568859368563,
        0.019607843831181526,
        1.0
      ],
      "type": "VEC4"
    },
    {
      "bufferView": 0,
      "byteOffset": 5081148,
      "componentType": 5125,
      "count": 71964,
      "type": "SCALAR"
    }
  ],
  "asset": {
    "extras": {
      "author": "vadler (https://sketchfab.com/vadler)",
      "license": "CC-BY-4.0 (http://creativecommons.org/licenses/by/4.0/)",
      "source": "https://sketchfab.com/3d-models/boulder-1e4b32c2b4f04cb691484afca927148c",
      "title": "Boulder"
    },
    "generator": "Sketchfab-12.68.0",
    "version": "2.0"
  },
  "bufferViews": [
    {
      "buffer": 0,
      "byteLength": 5369004,
      "name": "floatBufferViews",
      "target": 34963
    },
    {
      "buffer": 0,
      "byteLength": 6755856,
      "byteOffset": 5369004,
      "byteStride": 12,
      "name": "floatBufferViews",
      "target": 34962
    },
    {
      "buffer": 0,
      "byteLength": 4503904,
      "byteOffset": 12124860,
      "byteStride": 16,
      "name": "floatBufferViews",
      "target": 34962
    }
  ],
  "buffers": [
    {
      "byteLength": 16628764,
      "uri": "scene.bin"
    }
  ],
  "materials": [
    {
      "doubleSided": true,
      "name": "Scene_-_Root",
      "pbrMetallicRoughness": {
        "metallicFactor": 0.0,
        "roughnessFactor": 0.6
      }
    }
  ],
  "meshes": [
    {
      "name": "Object_0",
      "primitives": [
        {
          "attributes": {
            "COLOR_0": 2,
            "NORMAL": 1,
            "POSITION": 0
          },
          "indices": 3,
          "material": 0,
          "mode": 4
        }
      ]
    },
    {
      "name": "Object_1",
      "primitives": [
        {
          "attributes": {
            "COLOR_0": 6,
            "NORMAL": 5,
            "POSITION": 4
          },
          "indices": 7,
          "material": 0,
          "mode": 4
        }
      ]
    },
    {
      "name": "Object_2",
      "primitives": [
        {
          "attributes": {
            "COLOR_0": 10,
            "NORMAL": 9,
            "POSITION": 8
          },
          "indices": 11,
          "material": 0,
          "mode": 4
        }
      ]
    },
    {
      "name": "Object_3",
      "primitives": [
        {
          "attributes": {
            "COLOR_0": 14,
            "NORMAL": 13,
            "POSITION": 12
          },
          "indices": 15,
          "material": 0,
          "mode": 4
        }
      ]
    },
    {
      "name": "Object_4",
      "primitives": [
        {
          "attributes": {
            "COLOR_0": 18,
            "NORMAL": 17,
            "POSITION": 16
          },
          "indices": 19,
          "material": 0,
          "mode": 4
        }
      ]
    }
  ],
  "nodes": [
    {
      "children": [
        1
      ],
      "matrix": [
        1.0,
        0.0,
        0.0,
        0.0,
        0.0,
        2.220446049250313e-16,
        -1.0,
        0.0,
        0.0,
        1.0,
        2.220446049250313e-16,
        0.0,
        0.0,
        0.0,
        0.0,
        1.0
      ],
      "name": "Sketchfab_model"
    },
    {
      "children": [
        2,
        3,
        4,
        5,
        6
      ],
      "name": "Geode"
    },
    {
      "mesh": 0,
      "name": "Object_2"
    },
    {
      "mesh": 1,
      "name": "Object_3"
    },
    {
      "mesh": 2,
      "name": "Object_4"
    },
    {
      "mesh": 3,
      "name": "Object_5"
    },
    {
      "mesh": 4,
      "name": "Object_6"
    }
  ],
  "scene": 0,
  "scenes": [
    {
      "name": "Sketchfab_Scene",
      "nodes": [
        0
      ]
    }
  ]
}
