{"accessors":[{"bufferView":2,"componentType":5126,"count":5682,"max":[0.12481597810983658,0.25705698132514954,0.1608167439699173],"min":[-0.12468612939119339,-0.00038345999200828373,-0.1328297108411789],"type":"VEC3"},{"bufferView":2,"byteOffset":68184,"componentType":5126,"count":5682,"max":[0.9997585415840149,0.999809205532074,0.9999859929084778],"min":[-0.9998688697814941,-1,-0.9998763799667358],"type":"VEC3"},{"bufferView":3,"componentType":5126,"count":5682,"max":[0.9859622120857239,0.9999772310256958,0.9999939799308777,1],"min":[-0.9988228678703308,-0.9857664108276367,-0.9997515678405762,-1],"type":"VEC4"},{"bufferView":1,"componentType":5126,"count":5682,"max":[0.9980400204658508,0.9980499744415283],"min":[0.0019499999471008778,0.030910015106201172],"type":"VEC2"},{"bufferView":1,"byteOffset":45456,"componentType":5126,"count":5682,"max":[0.9980400204658508,0.9980499744415283],"min":[0.0019499999471008778,0.030910015106201172],"type":"VEC2"},{"bufferView":0,"componentType":5125,"count":30678,"type":"SCALAR"},{"bufferView":4,"componentType":5125,"count":4596,"type":"SCALAR"}],"asset":{"extras":{"author":"David Wigforss (https://sketchfab.com/dwigfor)","license":"CC-BY-NC-4.0 (http://creativecommons.org/licenses/by-nc/4.0/)","source":"https://sketchfab.com/3d-models/gargoyle-5-statue-95fde6fe86c74c058d46ed22717d24b4","title":"Gargoyle 5 Statue"},"generator":"Sketchfab-15.34.0","version":"2.0"},"bufferViews":[{"buffer":0,"byteLength":122712,"name":"floatBufferViews","target":34963},{"buffer":0,"byteLength":90912,"byteOffset":122712,"byteStride":8,"name":"floatBufferViews","target":34962},{"buffer":0,"byteLength":136368,"byteOffset":213624,"byteStride":12,"name":"floatBufferViews","target":34962},{"buffer":0,"byteLength":90912,"byteOffset":349992,"byteStride":16,"name":"floatBufferViews","target":34962},{"buffer":1,"byteOffset":0,"byteLength":18384,"target":34963}],"buffers":[{"byteLength":440904,"uri":"scene.bin"},{"uri":"scene-low.bin","byteLength":18384}],"images":[{"uri":"textures/MAT_Statue_Gargoyle5_baseColor.jpeg"},{"uri":"textures/MAT_Statue_Gargoyle5_normal.png"}],"materials":[{"doubleSided":true,"name":"MAT_Statue_Gargoyle5","normalTexture":{"index":1},"pbrMetallicRoughness":{"baseColorTexture":{"index":0},"metallicFactor":0,"roughnessFactor":0.9577051494623774}}],"meshes":[{"name":"geo1_MAT_Statue_Gargoyle5_0","primitives":[{"attributes":{"NORMAL":1,"POSITION":0,"TANGENT":2,"TEXCOORD_0":3,"TEXCOORD_1":4},"indices":6,"material":0,"mode":4}]}],"nodes":[{"children":[1],"matrix":[1,0,0,0,0,2.220446049250313e-16,-1,0,0,1,2.220446049250313e-16,0,0,0,0,1],"name":"Sketchfab_model"},{"children":[2],"matrix":[0.009999999776482582,0,0,0,0,0,0.009999999776482582,0,0,-0.009999999776482582,0,0,0,0,0,1],"name":"mesh.fbx"},{"children":[3],"name":"RootNode"},{"children":[4],"name":"geo1"},{"mesh":0,"name":"geo1_MAT_Statue_Gargoyle5_0"}],"samplers":[{"magFilter":9729,"minFilter":9987,"wrapS":10497,"wrapT":10497}],"scene":0,"scenes":[{"name":"Sketchfab_Scene","nodes":[0]}],"textures":[{"sampler":0,"source":0},{"sampler":0,"source":1}]}